HIERARCHY
ROOT Hips
{
	OFFSET -0.001795 -0.223333 0.028219
	CHANNELS 6 Xposition Yposition Zposition Zrotation Yrotation Xrotation 
	JOINT LeftUpLeg
	{
		OFFSET 0.069520 -0.091406 -0.006815
		CHANNELS 3 Zrotation Yrotation Xrotation
		JOINT LeftLeg
		{
			OFFSET 0.034277 -0.375199 -0.004496
			CHANNELS 3 Zrotation Yrotation Xrotation
			JOINT LeftFoot
			{
				OFFSET -0.013596 -0.397961 -0.043693
				CHANNELS 3 Zrotation Yrotation Xrotation
				JOINT LeftToe
				{
					OFFSET 0.026358 -0.055791 0.119288
					CHANNELS 3 Zrotation Yrotation Xrotation
					End Site
					{
						OFFSET 0.000000 0.000000 0.000000
					}
				}
			}
		}
	}
	JOINT RightUpLeg
	{
		OFFSET -0.067670 -0.090522 -0.004320
		CHANNELS 3 Zrotation Yrotation Xrotation
		JOINT RightLeg
		{
			OFFSET -0.038290 -0.382569 -0.008850
			CHANNELS 3 Zrotation Yrotation Xrotation
			JOINT RightFoot
			{
				OFFSET 0.015774 -0.398415 -0.042312
				CHANNELS 3 Zrotation Yrotation Xrotation
				JOINT RightToe
				{
					OFFSET -0.025372 -0.048144 0.123348
					CHANNELS 3 Zrotation Yrotation Xrotation
					End Site
					{
						OFFSET 0.000000 0.000000 0.000000
					}
				}
			}
		}
	}
	JOINT Spine
	{
		OFFSET -0.002533 0.108963 -0.026696
		CHANNELS 3 Zrotation Yrotation Xrotation
		JOINT Spine1
		{
			OFFSET 0.005487 0.135180 0.001092
			CHANNELS 3 Zrotation Yrotation Xrotation
			JOINT Spine2
			{
				OFFSET 0.001457 0.052922 0.025425
				CHANNELS 3 Zrotation Yrotation Xrotation
				JOINT Neck
				{
					OFFSET -0.002778 0.213870 -0.042857
					CHANNELS 3 Zrotation Yrotation Xrotation
					JOINT Head
					{
						OFFSET 0.005152 0.064970 0.051349
						CHANNELS 3 Zrotation Yrotation Xrotation
						End Site
						{
							OFFSET 0.000000 0.000000 0.000000
						}
					}
				}
				JOINT LeftShoulder
				{
					OFFSET 0.078845 0.121749 -0.034090
					CHANNELS 3 Zrotation Yrotation Xrotation
					JOINT LeftArm
					{
						OFFSET 0.090977 0.030469 -0.008868
						CHANNELS 3 Zrotation Yrotation Xrotation
						JOINT LeftForeArm
						{
							OFFSET 0.259612 -0.012772 -0.027456
							CHANNELS 3 Zrotation Yrotation Xrotation
							JOINT LeftHand
							{
								OFFSET 0.249234 0.008986 -0.001171
								CHANNELS 3 Zrotation Yrotation Xrotation
								End Site
								{
									OFFSET 0.000000 0.000000 0.000000
								}
							}
						}
					}
				}
				JOINT RightShoulder
				{
					OFFSET -0.081759 0.118833 -0.038615
					CHANNELS 3 Zrotation Yrotation Xrotation
					JOINT RightArm
					{
						OFFSET -0.096012 0.032551 -0.009143
						CHANNELS 3 Zrotation Yrotation Xrotation
						JOINT RightForeArm
						{
							OFFSET -0.253742 -0.013329 -0.021401
							CHANNELS 3 Zrotation Yrotation Xrotation
							JOINT RightHand
							{
								OFFSET -0.255298 0.007772 -0.005559
								CHANNELS 3 Zrotation Yrotation Xrotation
								End Site
								{
									OFFSET 0.000000 0.000000 0.000000
								}
							}
						}
					}
				}
			}
		}
	}
}
MOTION
Frames: 9
Frame Time: 0.033333
0.000000 1.014462 0.000000 0.293603 1.480992 2.582651 0.370327 -0.677483 -7.590331 -4.636085 0.537586 10.451742 1.099187 5.254748 7.660951 0.000000 0.000000 0.000000 0.981207 0.661504 -6.323148 -0.067689 0.346054 8.795997 -0.989635 -6.079860 9.910334 0.000000 0.000000 0.000000 -2.941088 0.135789 -7.056531 9.467450 -3.825736 -5.548473 -5.266566 1.007410 21.131019 -8.621238 5.516648 -49.039723 0.000000 0.000000 0.000000 -18.941096 -1.315561 -1.153523 -64.350075 -1.384897 -8.658534 7.317385 -12.662479 -0.196575 0.000000 0.000000 0.000000 12.227343 2.930323 1.060931 66.431352 6.915821 -4.150130 -2.260049 5.401877 0.147944 0.000000 0.000000 0.000000 
0.000706 1.013502 -0.000491 0.654964 1.517342 2.481337 -0.117180 -0.736849 -7.965817 -4.684865 0.547994 10.923259 1.142751 5.329317 7.643116 0.000000 0.000000 0.000000 0.545656 0.596481 -5.827133 -0.174733 0.335737 8.022073 -0.925901 -5.990345 10.050986 0.000000 0.000000 0.000000 -3.094030 0.125857 -7.050504 9.709283 -3.928449 -5.561989 -5.165953 1.060480 21.124576 -9.598176 5.805661 -49.025051 0.000000 0.000000 0.000000 -13.839482 -3.346011 0.316482 -61.481681 -7.823621 -5.000176 8.586250 -25.878946 -0.694757 0.000000 0.000000 0.000000 10.894643 2.757908 0.996141 65.838727 6.662382 -4.258241 -1.891328 7.297955 0.201491 0.000000 0.000000 0.000000 
0.002311 1.012393 -0.000882 0.989500 1.557414 2.392708 -0.551508 -0.794373 -8.315069 -4.723038 0.556734 11.496293 1.219847 5.468939 7.641435 0.000000 0.000000 0.000000 0.128991 0.529457 -5.270719 -0.269883 0.317850 7.146612 -0.850952 -5.884118 10.210177 0.000000 0.000000 0.000000 -3.246897 0.116012 -7.044501 9.939690 -4.026181 -5.575745 -5.073594 1.106460 21.119111 -10.476665 6.065439 -49.011022 0.000000 0.000000 0.000000 -9.121171 -5.169969 1.415169 -58.115718 -12.849141 -2.356483 11.827016 -38.323234 -2.141008 0.000000 0.000000 0.000000 9.693833 2.604129 0.938856 65.282204 6.362442 -4.390862 -1.351720 9.217312 0.283014 0.000000 0.000000 0.000000 
0.004274 1.011263 -0.001118 1.293555 1.598901 2.310655 -0.960115 -0.846907 -8.600954 -4.755999 0.564542 12.081412 1.293640 5.606813 7.652791 0.000000 0.000000 0.000000 -0.271444 0.474475 -4.795572 -0.347874 0.298320 6.337747 -0.780905 -5.780869 10.345155 0.000000 0.000000 0.000000 -3.389923 0.106681 -7.033784 10.152419 -4.116702 -5.586923 -4.985494 1.153766 21.113273 -11.293203 6.307098 -48.997902 0.000000 0.000000 0.000000 -4.637608 -6.839293 2.238782 -54.428710 -17.070020 -0.393333 16.808895 -50.235308 -5.238504 0.000000 0.000000 0.000000 8.583332 2.465198 0.888200 64.759832 6.026199 -4.540642 -0.686666 10.941999 0.389744 0.000000 0.000000 0.000000 
0.006315 1.010223 -0.001203 1.573449 1.640351 2.231775 -1.356750 -0.894269 -8.823076 -4.785809 0.571588 12.612147 1.352295 5.720523 7.673274 0.000000 0.000000 0.000000 -0.660661 0.448849 -4.599820 -0.387142 0.289919 5.979747 -0.744690 -5.702432 10.337571 0.000000 0.000000 0.000000 -3.520075 0.098036 -7.023966 10.350265 -4.201196 -5.595937 -4.899908 1.203354 21.107341 -12.070412 6.537220 -48.985403 0.000000 0.000000 0.000000 -0.304228 -8.391634 2.847130 -50.408701 -20.770021 1.051641 25.659884 -61.611212 -12.083100 0.000000 0.000000 0.000000 7.532792 2.337002 0.842065 64.278703 5.672248 -4.696824 0.077352 12.403697 0.517191 0.000000 0.000000 0.000000 
0.008415 1.009363 -0.001197 1.845477 1.681144 2.155345 -1.741220 -0.939672 -9.017647 -4.812356 0.577685 13.045163 1.409298 5.832577 7.698451 0.000000 0.000000 0.000000 -1.048507 0.472102 -4.937007 -0.344104 0.310579 6.674708 -0.784490 -5.673611 9.991641 0.000000 0.000000 0.000000 -3.641000 0.089925 -7.030945 10.544987 -4.284178 -5.606679 -4.817244 1.248650 21.103338 -12.817127 6.757835 -48.974437 0.000000 0.000000 0.000000 3.895894 -9.841175 3.275146 -45.998950 -24.026899 2.026450 44.517077 -71.650897 -28.854152 0.000000 0.000000 0.000000 6.522341 2.214608 0.797480 63.855281 5.325685 -4.846882 0.939810 13.683546 0.667455 0.000000 0.000000 0.000000 
0.010514 1.008942 -0.001131 2.074639 1.720293 2.085835 -2.098320 -0.979691 -9.167543 -4.839095 0.583649 13.401486 1.451509 5.918594 7.725011 0.000000 0.000000 0.000000 -1.416071 0.523011 -5.620410 -0.280623 0.352817 8.030364 -0.856182 -5.684422 9.562519 0.000000 0.000000 0.000000 -3.761283 0.081966 -7.026528 10.711653 -4.354123 -5.624391 -4.747114 1.287337 21.097537 -13.490205 6.957792 -48.950470 0.000000 0.000000 0.000000 7.853753 -11.099982 3.527758 -41.220766 -26.718265 2.510070 87.833466 -77.316020 -70.445725 0.000000 0.000000 0.000000 5.588815 2.103698 0.756813 63.522934 5.006683 -4.982527 1.860910 14.677838 0.827423 0.000000 0.000000 0.000000 
0.012403 1.008223 -0.001038 2.292857 1.758712 2.022059 -2.438671 -1.016220 -9.287372 -4.876023 0.591785 13.693888 1.493478 6.007880 7.763842 0.000000 0.000000 0.000000 -1.781495 0.559372 -6.185688 -0.209510 0.382313 9.147838 -0.914724 -5.681039 9.171083 0.000000 0.000000 0.000000 -3.882106 0.074056 -7.030607 10.873368 -4.423822 -5.628712 -4.677305 1.326888 21.095236 -14.126769 7.143988 -48.957688 0.000000 0.000000 0.000000 11.641238 -12.235258 3.652987 -32.652237 -26.351469 1.481450 92.982905 -70.901146 -69.589556 0.000000 0.000000 0.000000 4.706556 1.999576 0.718709 63.249017 4.695645 -5.114130 2.817044 15.460706 0.993943 0.000000 0.000000 0.000000 
0.014072 1.006983 -0.000937 2.498180 1.795690 1.962563 -2.763879 -1.049549 -9.381742 -4.909446 0.599006 13.915040 1.535828 6.102683 7.818812 0.000000 0.000000 0.000000 -2.130603 0.587063 -6.684451 -0.137008 0.404900 10.137809 -0.961961 -5.666498 8.816329 0.000000 0.000000 0.000000 -3.995395 0.066553 -7.026599 11.026413 -4.490604 -5.627539 -4.611747 1.364346 21.093212 -14.721994 7.318893 -48.954393 0.000000 0.000000 0.000000 15.236125 -13.247473 3.674513 -21.905622 -21.890557 -0.188202 72.145012 -56.806884 -40.571041 0.000000 0.000000 0.000000 3.867654 1.904134 0.683651 63.036539 4.393474 -5.241876 3.780290 16.026770 1.157734 0.000000 0.000000 0.000000 
